<?xml version="1.0"?>
<svg width="683" height="514.1" xmlns="http://www.w3.org/2000/svg" xmlns:svg="http://www.w3.org/2000/svg" xmlns:xlink="http://www.w3.org/1999/xlink" enable-background="new 0 0 683 514.1" version="1.0" xml:space="preserve">
 <style type="text/css">.st0{clip-path:url(#SVGID_00000093886867244984725920000014086951627988031147_);}
	.st1{fill:#2A3375;}
	.st2{clip-path:url(#SVGID_00000104706199260587720200000001704731779519876795_);}
	.st3{clip-path:url(#SVGID_00000176030089665695015600000001032003935479342780_);}
	.st4{clip-path:url(#SVGID_00000179640183444163927310000014657373210800197556_);}
	.st5{clip-path:url(#SVGID_00000146497972305612672970000014813887678113429648_);}
	.st6{clip-path:url(#SVGID_00000041290019811518460480000007538594730401551234_);}
	.st7{clip-path:url(#SVGID_00000098909672957793102960000014651835486226112186_);}
	.st8{clip-path:url(#SVGID_00000125565904890725904830000003177355212227340444_);}
	.st9{clip-path:url(#SVGID_00000038381203546832559410000006949851411040836277_);}
	.st10{clip-path:url(#SVGID_00000018952148902196354630000007542145931252800132_);}
	.st11{clip-path:url(#SVGID_00000000922288810106552780000011914551431081847207_);}
	.st12{clip-path:url(#SVGID_00000018233484663486165970000006848642593190633883_);}
	.st13{clip-path:url(#SVGID_00000096058382597739092170000005865357001379058362_);}
	.st14{fill:#FDD100;}
	.st15{clip-path:url(#SVGID_00000037671792512766406430000017333269148656029625_);}
	.st16{fill:#FFFFFF;}
	.st17{clip-path:url(#SVGID_00000106133042132183489820000012482226099648582062_);}</style>
 <g class="layer">
  <title>Layer 1</title>
  <g id="svg_47">
   <defs>
    <path d="m184.5,194c-50.1,0.1 -90.6,27 -90.4,59.8l0,3.5c0.1,34.8 35.6,62.9 90.8,62.6c55.5,-0.1 90.5,-28.5 90.5,-63.2c-0.1,-1.2 0,-1.9 0,-3.5c-0.2,-32.6 -40.6,-59.2 -90.5,-59.2l-0.4,0z" id="SVGID_00000003801746183987948520000005743078069888915633_"/>
   </defs>
   <clipPath id="SVGID_00000054976523819379675770000016423470079322947261_">
    <use id="svg_48" overflow="visible" xlink:href="#SVGID_00000003801746183987948520000005743078069888915633_"/>
   </clipPath>
   <g clip-path="url(#SVGID_00000054976523819379675770000016423470079322947261_)" id="svg_49">
    <rect class="st1" height="155.9" id="svg_50" width="211.3" x="79" y="179.1"/>
   </g>
  </g>
  <g id="svg_51">
   <defs>
    <path d="m184.5,197.2c-47.7,0.1 -86.3,25.5 -86.2,56.7s38.8,56.4 86.5,56.2s86.3,-25.5 86.2,-56.7s-38.6,-56.2 -86.1,-56.2l-0.4,0z" id="SVGID_00000087401803050427460670000015035061130059004033_"/>
   </defs>
   <clipPath id="SVGID_00000062163980249257249260000009405826973988158851_">
    <use id="svg_52" overflow="visible" xlink:href="#SVGID_00000087401803050427460670000015035061130059004033_"/>
   </clipPath>
   <g clip-path="url(#SVGID_00000062163980249257249260000009405826973988158851_)" id="svg_53">
    <rect class="st14" height="142.9" id="svg_54" width="202.7" x="83.3" y="182.2"/>
   </g>
  </g>
  <g id="svg_55">
   <defs>
    <path d="m143.4,260.1c-3.4,0.1 -6,3 -5.9,6.4c0.1,3.2 2.7,5.7 5.9,5.9c1.6,0 3.1,-0.7 4.2,-1.8c0.1,0 0.1,0.1 0,0.2c0,0 0,0 0,0c-0.3,1.5 -0.7,7 5,9.2c2,0.8 4.3,0.4 5.9,-1c0.5,-0.4 0.6,-0.2 0.5,0.3c-0.2,1.4 0.1,4.5 4.3,6.1c2.2,1 4.8,0.5 6.4,-1.2c0.6,-0.5 0.7,-0.4 0.8,0.4c0.1,4.2 3.6,7.5 7.8,7.4c4.2,-0.1 7.5,-3.6 7.4,-7.8l0,0c-0.1,-4.2 -3.5,-7.6 -7.7,-7.6c-1.7,0 -3.6,1 -3.9,0.9c0,-0.4 0.1,-0.8 0.3,-1.2c0.2,-0.4 2.4,-7.3 -3.1,-9.6c-4.3,-1.8 -6.9,0.3 -7.7,1.1c-0.3,0.3 -0.4,0.2 -0.4,-0.1c-0.1,-2.6 -1.8,-4.9 -4.3,-5.7c-3.6,-1.1 -7.4,0.3 -9.5,3.4c-0.3,-3 -2.9,-5.3 -5.9,-5.3l-0.1,0zm-45.3,-13.2c1.6,0.5 4.1,1.2 5.2,1.4c24.8,5.5 32.6,11.1 33.9,12.3c1.5,-1.8 3.8,-2.8 6.1,-2.8c2.7,0 5.2,1.3 6.7,3.5c1.7,-1.4 3.8,-2.1 5.9,-2.1c1.2,0 2.4,0.2 3.6,0.6c2.3,0.6 4.1,2.3 5,4.5c1.1,-0.5 2.3,-0.7 3.5,-0.7c1.4,0 2.8,0.3 4.1,0.9c4.6,1.9 5.3,6.5 4.9,9.9c0.3,0 0.6,0 0.9,0c5.4,0 9.8,4.4 9.8,9.8c0,1.6 -0.4,3.2 -1.2,4.7c1.5,0.8 5.2,2.7 8.5,2.3c2.6,-0.3 3.7,-1.3 4,-1.8c0.3,-0.5 0.5,-0.8 0.3,-1l-7,-7.8c0,0 -1.1,-1.1 -0.8,-1.5c0.4,-0.4 1.1,0.2 1.6,0.6c3.5,3 7.9,7.5 7.9,7.5s0.4,0.7 2,0.9c1.9,0.3 3.9,-0.1 5.6,-1.3c0.4,-0.4 0.9,-0.8 1.2,-1.2l-0.1,0.1c1.8,-2.3 -0.2,-4.6 -0.2,-4.6l-8.2,-9.2c0,0 -1.1,-1.1 -0.8,-1.5c0.4,-0.4 1.1,0.2 1.6,0.6c2.6,2.1 6.3,5.8 9.7,9.2c0.7,0.5 3.8,2.4 7.8,-0.3c2.4,-1.6 3,-3.6 2.9,-5.2c-0.2,-1.3 -0.8,-2.5 -1.7,-3.4l-11.2,-11.2c0,0 -1.1,-1 -0.8,-1.5c0.4,-0.5 1.1,0.2 1.6,0.6c3.5,3 13.2,11.8 13.2,11.8c2.3,1.5 5.3,1.4 7.6,-0.2c1.4,-0.8 2.4,-2.3 2.5,-4c0.1,-1.7 -0.6,-3.4 -1.9,-4.6c-0.3,-0.3 -28.3,-24.7 -34.6,-29.5c-3.7,-2.7 -5.7,-3.4 -7.9,-3.7c-1.3,-0.1 -2.5,0 -3.8,0.3c-2.9,0.8 -6.8,3.4 -10.2,6.1c-3.6,2.9 -6.8,5.5 -9.9,6.2c-4,0.9 -8.8,-0.2 -11,-1.7c-0.8,-0.5 -1.4,-1.2 -1.8,-2c-0.8,-1.9 0.7,-3.4 0.9,-3.7l7.7,-8.4c0.9,-0.9 1.8,-1.8 2.7,-2.7c-2.4,0.4 -4.7,0.9 -7,1.6c-2.6,0.9 -5.4,1.4 -8.2,1.5c-2.8,-0.3 -5.6,-0.7 -8.4,-1.3c-7.7,-2 -15.1,-4.6 -22.3,-7.9c-10.6,8.3 -17.9,18.6 -19.9,29.9m89.9,-31.3c-13.1,0.4 -18.8,6 -24.7,12.1l-7.6,8.3c0,0.1 -0.9,1 -0.4,1.7c1.3,1.8 5.6,2.8 9.9,1.8c2.5,-0.6 5.8,-3.2 9,-5.8c3.5,-2.8 6.8,-5.5 10.3,-6.6c2.4,-0.9 5.1,-1 7.5,-0.2c2.5,0.9 4.8,2.3 6.8,4c6,4.5 30,25.5 34.2,29c12.3,-5.4 25.2,-9.6 38.3,-12.5c-1.8,-10.8 -8.4,-20.6 -18.3,-28.6c-13.8,5.9 -30.7,9 -47.2,0.9c-0.1,0 -8.6,-4 -17.2,-4l-0.6,-0.1" id="SVGID_00000020377901541786066030000011851596178515557518_"/>
   </defs>
   <clipPath id="SVGID_00000178912027527334394710000004290476071475470488_">
    <use id="svg_56" overflow="visible" xlink:href="#SVGID_00000020377901541786066030000011851596178515557518_"/>
   </clipPath>
   <g clip-path="url(#SVGID_00000178912027527334394710000004290476071475470488_)" id="svg_57">
    <rect class="st16" height="106.3" id="svg_58" width="203.2" x="83.1" y="200.6"/>
   </g>
  </g>
  <g id="svg_59">
   <defs>
    <path d="m138,266.5c-0.1,-3 2.3,-5.6 5.3,-5.6c2.9,-0.1 5.3,2.1 5.6,4.9l0.2,1.5l0.8,-1.2c1.5,-2.2 3.9,-3.5 6.5,-3.6c0.8,0 1.6,0.1 2.4,0.3c2.3,0.7 3.8,2.8 3.9,5.2c0.1,0.8 0.6,0.8 0.7,0.8c0.2,0 0.5,-0.1 0.7,-0.3c1,-1.1 2.5,-1.7 4,-1.8c1,0 2.1,0.3 3,0.7c5.2,2.2 2.9,8.9 2.9,9c-0.5,1.1 -0.5,1.6 -0.1,1.9l0.2,0.1l0.2,0c0.3,-0.1 0.7,-0.2 1,-0.3c0.9,-0.4 1.9,-0.6 2.8,-0.6c3.9,0 7,3.1 7,7c0,3.9 -3.1,7 -7,7c-3.8,0 -7,-3 -7.2,-6.8c0,-0.3 0,-1.2 -0.8,-1.2c-0.3,0 -0.6,0.2 -0.8,0.5c-0.9,1 -2.1,1.6 -3.5,1.6c-0.8,0 -1.6,-0.2 -2.3,-0.5c-4.1,-1.7 -4.1,-4.4 -3.9,-5.5c0.1,-0.3 0.1,-0.6 -0.1,-0.8l-0.3,-0.2l-0.2,0c-0.2,0 -0.5,0.1 -0.6,0.3c-1,0.8 -2.2,1.3 -3.5,1.3c-0.6,0 -1.3,-0.1 -1.9,-0.4c-5.3,-2.1 -4.9,-7.1 -4.6,-8.7c0,-0.3 0,-0.6 -0.2,-0.7l-0.4,-0.3l-0.4,0.4c-1,1 -2.4,1.6 -3.8,1.5l0,0c-3.1,-0.1 -5.5,-2.5 -5.6,-5.5m50.8,-53.8l-0.8,0c-10.9,0.3 -17,4.2 -21.1,7.5c-3.6,0.2 -7.1,0.9 -10.5,1.9c-2.4,0.8 -4.9,1.3 -7.4,1.4c-0.5,0 -1.2,0 -1.8,0l-1.1,0c-2.6,-0.1 -16,-3.3 -26.6,-7.3c-1.1,0.8 -2.2,1.6 -3.2,2.4c11.1,4.5 24.7,8 28.9,8.2l3.7,0.2c2.9,-0.2 5.7,-0.7 8.4,-1.6c1.7,-0.5 3.5,-1 5.3,-1.3c-0.5,0.5 -1,1 -1.5,1.5l-7.7,8.3c-0.6,0.6 -2,2.3 -1.1,4.3c0.5,0.9 1.1,1.7 2,2.2c2.5,1.4 5.3,2.1 8.2,2.1c1.1,0 2.2,-0.1 3.3,-0.3c3.2,-0.7 6.6,-3.5 10.2,-6.3c2.8,-2.3 6.9,-5.2 10,-6.1c0.9,-0.2 1.9,-0.4 2.8,-0.4c0.3,0 0.5,0 0.8,0.1c2.1,0.3 4.1,1 7.6,3.6c6.3,4.8 34.4,29.2 34.6,29.4c1.1,1.1 1.7,2.6 1.7,4.1c-0.1,1.5 -0.9,2.8 -2.2,3.6c-1.1,0.7 -2.4,1.1 -3.7,1.2c-1.1,0 -2.3,-0.3 -3.2,-0.9c-0.1,-0.1 -9.7,-8.9 -13.3,-11.8c-0.5,-0.4 -1,-0.7 -1.6,-0.9c-0.3,0 -0.6,0.1 -0.8,0.4c-0.6,0.7 0.1,1.6 0.8,2.3l11.2,11.2c0.8,0.8 1.4,1.9 1.6,3c0.1,1.9 -0.8,3.4 -2.7,4.7c-1.2,0.9 -2.6,1.3 -4,1.3c-1.1,0 -2.3,-0.4 -3.2,-1l-1.6,-1.6c-3,-2.9 -6,-5.9 -8.2,-7.8c-0.5,-0.5 -1.1,-0.8 -1.7,-0.8c-0.3,0 -0.5,0.1 -0.7,0.3c-0.3,0.3 -0.5,0.8 0.2,1.6c0.2,0.2 0.4,0.5 0.6,0.7l8.2,9.2c1,1.1 1.1,2.7 0.2,3.9l-0.3,0.4l-0.7,0.8c-1.2,0.9 -2.6,1.3 -4,1.3c-0.4,0 -0.8,0 -1.1,-0.1c-0.6,-0.1 -1.1,-0.3 -1.6,-0.6l-0.1,-0.1c-0.5,-0.5 -4.6,-4.7 -8,-7.5c-0.4,-0.4 -1,-0.7 -1.6,-0.8c-0.3,0 -0.6,0.1 -0.8,0.3c-0.7,0.8 0.3,1.9 0.8,2.3l7,7.7c0,0.1 -0.1,0.2 -0.3,0.5c-0.2,0.3 -1.1,1.1 -3.6,1.6c-0.3,0 -0.7,0.1 -1,0.1c-2.4,-0.1 -4.7,-0.8 -6.8,-2c0.7,-1.4 1,-2.9 1,-4.5c0,-5.7 -4.5,-10.3 -10.2,-10.4c0,0 -0.1,0 -0.1,0l-0.4,0c0.2,-2.6 -0.2,-7.6 -5.3,-9.8c-1.4,-0.6 -2.9,-0.9 -4.4,-1c-1.1,0 -2.2,0.2 -3.2,0.6c-1,-2.1 -2.9,-3.6 -5.1,-4.3c-1.2,-0.4 -2.4,-0.6 -3.7,-0.6c-2.1,0 -4.1,0.7 -5.8,1.9c-1.7,-2.1 -4.2,-3.3 -6.8,-3.3c-2.3,0 -4.6,1 -6.2,2.6c-2.2,-1.7 -10.8,-7.1 -33.9,-12.3c-1.1,-0.3 -3.7,-1 -5.2,-1.4c-0.3,1.2 -0.4,2.5 -0.6,3.8c0,0 4.3,1 5.1,1.2c23.6,5.2 31.3,10.6 32.6,11.6c-0.4,1.1 -0.7,2.2 -0.7,3.4c0.1,5 4.2,8.9 9.2,8.8c0.4,0 0.8,0 1.2,-0.1c0.7,3.6 3.3,6.5 6.7,7.7c1,0.4 2.1,0.6 3.1,0.6c0.7,0 1.3,-0.1 2,-0.2c1,2.4 3,4.3 5.4,5.1c1.1,0.5 2.3,0.7 3.5,0.7c0.9,0 1.9,-0.2 2.7,-0.5c1.6,3.9 5.4,6.4 9.6,6.4c2.8,0 5.5,-1.2 7.4,-3.2c2.7,1.5 5.7,2.4 8.8,2.6c0.4,0 0.9,0 1.3,-0.1c3.6,-0.4 5.2,-1.9 5.9,-2.9c0.1,-0.2 0.3,-0.4 0.4,-0.6c0.9,0.3 1.9,0.5 2.8,0.4c2.1,-0.1 4,-0.8 5.6,-2.1c1.7,-1.1 2.9,-2.9 3.3,-4.9l0,-0.1c0.6,0.1 1.2,0.2 1.9,0.2c2.1,0 4.1,-0.7 5.8,-1.9c3.7,-2.4 4.3,-5.5 4.2,-7.5c0.6,0.1 1.3,0.2 1.9,0.2c1.9,-0.1 3.8,-0.6 5.5,-1.7c2.2,-1.4 3.6,-3.7 3.8,-6.2c0.1,-1.7 -0.3,-3.5 -1.2,-5c11.8,-4.8 23.9,-8.7 36.2,-11.5c-0.1,-1.2 -0.3,-2.6 -0.5,-3.8c-13,2.9 -25.7,7 -37.8,12.4c-8.6,-7.5 -28.6,-24.8 -34,-28.8c-2.1,-1.8 -4.4,-3.1 -7,-4.1c-1.1,-0.4 -2.2,-0.5 -3.4,-0.5c-1.5,0 -2.9,0.3 -4.3,0.7c-3.5,1.1 -7,3.9 -10.3,6.6l-0.2,0.1c-3.1,2.5 -6.4,5.1 -8.8,5.6c-1.1,0.2 -2.2,0.4 -3.3,0.4c-2.7,0 -5.2,-0.8 -6.2,-1.9c-0.2,-0.2 -0.1,-0.5 0.3,-1l0.1,-0.1l7.6,-8.2c5.9,-5.9 11.5,-11.6 24.4,-11.9l0.7,0c8,0 16.1,3.6 17,3.9c7.2,3.6 15.1,5.5 23.1,5.5c8.1,0 16.5,-2.1 25.4,-6.2c-1,-0.8 -2,-1.7 -3.1,-2.4c-7,3.2 -14.6,5 -22.3,5.1c-7.5,-0.1 -14.9,-1.8 -21.7,-5.1c-0.4,-0.2 -9.2,-4.3 -18.4,-4.3l0.1,-0.1z" id="SVGID_00000159427614132171958390000008348701213203597446_"/>
   </defs>
   <clipPath id="SVGID_00000063597951960425072120000003642833123798097290_">
    <use id="svg_60" overflow="visible" xlink:href="#SVGID_00000159427614132171958390000008348701213203597446_"/>
   </clipPath>
   <g clip-path="url(#SVGID_00000063597951960425072120000003642833123798097290_)" id="svg_61">
    <rect class="st1" height="112.2" id="svg_62" width="204.3" x="82.5" y="197.7"/>
   </g>
  </g>
 </g>
</svg>